<svg xmlns="http://www.w3.org/2000/svg" width="100%" height="100%" viewBox="255 254 512 512" fill="none">
  <defs>
    <linearGradient id="g3" gradientUnits="userSpaceOnUse" x1="301.3" y1="558.3" x2="384.7" y2="345.7"><stop offset="0%" stop-color="#6cb3f5"/><stop offset="100%" stop-color="#7fc0f9"/></linearGradient> <linearGradient id="g6" gradientUnits="userSpaceOnUse" x1="359.5" y1="739.1" x2="409.5" y2="507.9"><stop offset="0%" stop-color="#4f9fee"/><stop offset="100%" stop-color="#71b7f6"/></linearGradient> <linearGradient id="g5" gradientUnits="userSpaceOnUse" x1="672.2" y1="680.1" x2="687.8" y2="452.9"><stop offset="0%" stop-color="#5fa9f1"/><stop offset="100%" stop-color="#79bcf7"/></linearGradient> <linearGradient id="g2" gradientUnits="userSpaceOnUse" x1="692.9" y1="499.4" x2="580.1" y2="290.6"><stop offset="0%" stop-color="#7abcf8"/><stop offset="100%" stop-color="#80c0f9"/></linearGradient> <linearGradient id="g7" gradientUnits="userSpaceOnUse" x1="543.7" y1="761.4" x2="532.3" y2="567.6"><stop offset="0%" stop-color="#52a0ed"/><stop offset="100%" stop-color="#5eaaf3"/></linearGradient> <linearGradient id="g1" gradientUnits="userSpaceOnUse" x1="458.5" y1="448.5" x2="510.5" y2="262.5"><stop offset="0%" stop-color="#a9dcfe"/><stop offset="100%" stop-color="#b1e0ff"/></linearGradient> <linearGradient id="g4" gradientUnits="userSpaceOnUse" x1="482.5" y1="553.9" x2="540.5" y2="463.1"><stop offset="0%" stop-color="#00326e"/><stop offset="100%" stop-color="#023571"/></linearGradient>
  </defs>
  <polygon points="384.0,539.5 268.5,475.0 329.0,364.5 417.5,416.0 417.5,519.0" fill="url(#g3)"/> <polygon points="361.0,702.5 295.5,598.0 383.0,544.5 473.0,595.5 473.5,635.0" fill="url(#g6)"/> <polygon points="696.0,653.5 606.5,602.0 606.5,500.0 640.0,479.5 754.5,543.0" fill="url(#g5)"/> <polygon points="642.0,474.5 549.0,422.5 547.5,384.0 661.0,315.5 725.5,422.0" fill="url(#g2)"/> <polygon points="598.0,740.5 478.0,740.5 476.5,639.0 565.0,588.5 597.0,605.5" fill="url(#g7)"/> <polygon points="458.0,430.5 423.5,412.0 423.5,281.0 546.0,280.5 546.5,378.0" fill="url(#g1)"/> <polygon points="512.0,549.5 475.5,528.0 476.5,488.0 511.0,467.5 547.5,488.0 547.5,528.0" fill="url(#g4)"/>
</svg>